<?xml version="1.0" standalone="no"?>
<!DOCTYPE svg PUBLIC "-//W3C//DTD SVG 20010904//EN"
 "http://www.w3.org/TR/2001/REC-SVG-20010904/DTD/svg10.dtd">
<svg version="1.0" xmlns="http://www.w3.org/2000/svg"
 width="1216.000000pt" height="224.000000pt" viewBox="0 0 1216.000000 224.000000"
 preserveAspectRatio="xMidYMid meet">

<g transform="translate(0.000000,224.000000) scale(0.100000,-0.100000)"
fill="#000000" stroke="none">
<path d="M3714 2126 c-130 -41 -234 -165 -319 -381 l-31 -80 -133 -3 c-119 -2
-132 -4 -129 -20 3 -15 20 -18 124 -22 l121 -5 -273 -750 c-150 -412 -273
-753 -274 -757 0 -5 29 -8 64 -8 l64 0 26 68 c14 37 138 377 275 755 137 379
252 691 255 694 3 3 67 6 143 7 123 1 138 3 141 19 3 15 -8 17 -132 17 -82 0
-136 4 -136 10 0 14 76 203 104 259 35 67 110 147 153 162 67 22 183 -7 183
-46 0 -11 -7 -14 -24 -9 -55 13 -91 -78 -44 -110 31 -22 60 -20 92 5 22 17 26
28 26 71 0 43 -4 54 -33 83 -53 53 -152 69 -243 41z"/>
<path d="M6596 1811 c-66 -182 -123 -328 -128 -325 -4 3 -8 17 -8 32 -1 44
-35 107 -71 130 -79 48 -199 34 -343 -40 -61 -32 -102 -64 -166 -128 -93 -93
-143 -170 -209 -321 -104 -238 -264 -418 -451 -508 -68 -32 -85 -36 -175 -39
-90 -3 -105 -1 -145 20 -34 18 -51 36 -70 73 -22 45 -25 61 -24 160 1 123 32
271 61 293 9 7 46 12 82 12 132 0 294 54 389 130 168 132 161 334 -13 370
-186 39 -425 -114 -550 -351 -119 -227 -145 -475 -65 -616 100 -174 397 -189
627 -32 68 47 171 155 227 238 26 39 48 71 49 71 1 0 2 -60 2 -132 0 -120 2
-138 24 -181 15 -30 38 -58 64 -75 35 -23 51 -27 111 -27 141 1 273 96 409
295 l58 85 -8 -50 c-23 -148 7 -248 92 -300 44 -27 56 -30 131 -29 69 0 91 5
140 29 98 48 217 182 330 371 8 14 10 -10 6 -91 -5 -123 4 -170 45 -232 36
-57 81 -78 163 -78 134 1 286 112 410 303 29 45 54 82 56 82 1 0 -2 -17 -7
-37 -5 -21 -9 -72 -9 -114 0 -101 31 -167 98 -207 41 -24 57 -27 127 -26 64 0
92 6 137 26 75 35 186 146 268 268 35 52 60 84 57 70 -4 -14 -10 -56 -13 -95
-11 -118 25 -199 106 -245 38 -21 58 -25 121 -24 63 1 87 6 141 31 109 51 182
134 345 389 10 16 12 1 12 -79 2 -210 85 -311 279 -339 215 -31 441 90 608
324 l60 85 -1 -121 c0 -94 4 -132 18 -168 51 -131 202 -163 352 -75 73 43 175
147 240 244 26 40 49 73 51 73 2 0 -3 -17 -10 -37 -8 -21 -49 -135 -91 -253
-114 -318 -165 -404 -276 -465 -46 -25 -68 -30 -144 -33 -107 -5 -162 8 -204
47 -37 35 -42 71 -8 71 30 0 44 11 56 43 22 56 -28 102 -88 81 -89 -32 -51
-192 59 -254 36 -19 63 -25 135 -28 227 -10 407 94 503 290 22 46 136 346 252
668 117 322 214 588 217 593 2 4 -27 7 -64 7 l-69 0 -34 -95 -35 -95 -11 54
c-13 64 -45 118 -77 133 -50 23 -129 25 -204 5 -209 -56 -396 -237 -498 -482
-113 -272 -325 -496 -524 -554 -30 -9 -89 -16 -130 -16 -122 1 -187 42 -212
134 -22 80 5 349 40 405 7 10 40 17 108 22 175 13 306 62 398 150 68 65 95
118 95 191 0 107 -65 163 -190 163 -211 0 -434 -190 -536 -458 -95 -248 -289
-514 -423 -580 -66 -33 -171 -38 -210 -11 -52 37 -63 114 -32 235 14 55 222
644 276 782 7 16 2 18 -61 15 l-68 -3 -98 -270 c-100 -274 -143 -364 -252
-525 -65 -95 -158 -188 -222 -220 -35 -17 -70 -26 -121 -28 -72 -4 -73 -4
-108 31 -35 35 -41 56 -36 132 4 67 31 151 208 640 102 281 202 558 224 618
l38 107 -67 0 -67 0 -119 -330 c-65 -182 -120 -330 -121 -330 -2 0 -8 23 -14
51 -6 28 -21 64 -32 80 -109 154 -467 20 -646 -241 -34 -50 -96 -171 -108
-210 -4 -14 -30 -65 -58 -115 -168 -302 -309 -435 -459 -435 -32 0 -72 7 -87
15 -59 30 -71 134 -32 265 18 58 393 1102 440 1223 l11 27 -68 0 -67 0 -119
-329z m-1244 -185 c44 -33 41 -129 -6 -211 -34 -58 -117 -132 -181 -161 -68
-31 -184 -56 -246 -52 l-48 3 39 84 c98 208 251 351 375 351 28 -1 58 -6 67
-14z m1023 -8 c59 -46 70 -143 34 -287 -69 -274 -281 -601 -448 -690 -101 -53
-186 -40 -217 35 -67 161 114 642 318 841 111 110 247 153 313 101z m1360 0
c38 -30 55 -76 55 -151 0 -194 -156 -525 -337 -717 -95 -100 -163 -140 -240
-140 -112 0 -146 89 -107 278 50 243 197 525 338 649 107 94 231 129 291 81z
m1990 -3 c77 -76 -32 -286 -185 -357 -68 -32 -182 -58 -250 -58 -60 0 -60 1
-7 105 101 203 247 335 369 335 39 0 54 -5 73 -25z m999 13 c80 -36 92 -182
30 -367 -89 -265 -287 -551 -433 -624 -73 -36 -151 -38 -186 -3 -24 24 -45 82
-45 127 0 87 63 309 129 453 128 282 367 478 505 414z"/>
<path d="M8677 1953 c-30 -34 -31 -70 -3 -97 48 -49 126 -22 126 44 0 17 -9
39 -20 50 -25 25 -81 26 -103 3z"/>
<path d="M1780 1903 c-22 -3 -60 -23 -103 -56 -58 -44 -76 -66 -127 -154 -32
-57 -75 -149 -94 -205 -20 -56 -42 -108 -49 -116 -8 -7 -196 -70 -418 -139
-243 -76 -422 -137 -449 -154 -50 -30 -247 -110 -380 -154 -73 -24 -82 -29
-63 -38 25 -11 373 39 384 55 4 6 22 5 45 -1 21 -6 183 -30 359 -52 459 -58
421 -56 456 -30 26 20 29 20 21 4 -23 -42 -46 -50 -207 -73 -88 -12 -162 -24
-164 -26 -14 -13 102 -14 287 -2 l220 15 40 34 c22 19 75 52 118 74 43 22 92
52 110 67 l31 27 -1 -42 c-1 -25 6 -54 16 -69 16 -24 25 -27 103 -33 108 -9
205 8 205 36 0 14 -10 20 -40 25 -37 6 -41 10 -58 58 -44 118 -61 186 -65 266
-3 47 -10 98 -16 113 -6 16 -11 86 -11 157 0 148 1 150 94 202 54 30 60 38 83
96 14 35 23 66 20 69 -4 3 -50 16 -104 29 -91 22 -157 27 -243 17z m185 -43
c-3 -5 -13 -6 -21 -3 -12 4 -13 8 -3 14 15 9 32 2 24 -11z m93 -61 c3 -11 2
-11 -7 1 -9 12 -17 8 -53 -25 l-43 -40 40 43 c40 42 55 48 63 21z m-26 -41
c-7 -7 -12 -8 -12 -2 0 6 3 14 7 17 3 4 9 5 12 2 2 -3 -1 -11 -7 -17z"/>
<path d="M4399 1667 c-92 -34 -205 -152 -311 -325 -28 -45 -53 -81 -55 -79 -3
3 98 293 132 380 7 16 2 18 -60 15 l-68 -3 -193 -530 c-106 -291 -194 -533
-194 -537 0 -5 29 -8 64 -8 l65 0 21 57 c12 32 51 139 86 238 68 190 126 300
255 491 127 186 225 274 308 274 42 0 71 -16 71 -39 0 -13 -8 -18 -32 -18 -20
0 -37 -7 -50 -22 -58 -73 37 -169 107 -108 53 45 44 168 -15 205 -31 19 -92
23 -131 9z"/>
<path d="M11762 1670 c-61 -13 -179 -72 -232 -117 -191 -160 -302 -397 -304
-643 -1 -169 46 -269 149 -316 152 -70 310 -22 475 146 171 172 260 385 260
619 0 101 -3 123 -24 166 -29 62 -61 97 -114 124 -46 24 -148 34 -210 21z
m215 -57 c56 -41 68 -77 68 -198 -1 -370 -284 -805 -525 -807 -61 0 -106 24
-134 72 -28 47 -33 177 -12 299 53 305 217 567 403 642 64 25 161 22 200 -8z"/>
</g>
</svg>
